<mxfile host="app.diagrams.net" modified="2022-04-14T12:26:26.973Z" agent="5.0 (Windows NT 10.0; Win64; x64) AppleWebKit/537.36 (KHTML, like Gecko) Chrome/100.0.4896.75 Safari/537.36" etag="hqBX7Do7J45y5AKujBQ6" version="17.4.3" type="github">
  <diagram id="Lof_Wo-xlNR3MHUV8qx0" name="Page-1">
    <mxGraphModel dx="1117" dy="657" grid="1" gridSize="10" guides="0" tooltips="1" connect="1" arrows="1" fold="1" page="1" pageScale="1" pageWidth="2000" pageHeight="3000" math="0" shadow="0">
      <root>
        <object label="" id="0">
          <mxCell />
        </object>
        <mxCell id="1" parent="0" />
        <mxCell id="NmvkQJJ4W1ErekPpUdU3-1" value="" style="rounded=0;whiteSpace=wrap;html=1;" parent="1" vertex="1">
          <mxGeometry x="260" y="70" width="120" height="60" as="geometry" />
        </mxCell>
        <mxCell id="NmvkQJJ4W1ErekPpUdU3-2" value="" style="ellipse;whiteSpace=wrap;html=1;" parent="1" vertex="1">
          <mxGeometry x="100" y="10" width="60" height="30" as="geometry" />
        </mxCell>
        <mxCell id="NmvkQJJ4W1ErekPpUdU3-3" value="" style="ellipse;whiteSpace=wrap;html=1;" parent="1" vertex="1">
          <mxGeometry x="170" y="10" width="60" height="30" as="geometry" />
        </mxCell>
        <mxCell id="NmvkQJJ4W1ErekPpUdU3-4" value="" style="ellipse;whiteSpace=wrap;html=1;" parent="1" vertex="1">
          <mxGeometry x="310" y="10" width="60" height="30" as="geometry" />
        </mxCell>
        <mxCell id="NmvkQJJ4W1ErekPpUdU3-5" value="" style="ellipse;whiteSpace=wrap;html=1;" parent="1" vertex="1">
          <mxGeometry x="380" y="10" width="60" height="30" as="geometry" />
        </mxCell>
        <mxCell id="NmvkQJJ4W1ErekPpUdU3-6" value="&lt;font style=&quot;font-size: 9px&quot;&gt;&lt;u&gt;username&lt;/u&gt;&lt;/font&gt;" style="text;html=1;strokeColor=none;fillColor=none;align=center;verticalAlign=middle;whiteSpace=wrap;rounded=0;" parent="1" vertex="1">
          <mxGeometry x="100" y="10" width="60" height="30" as="geometry" />
        </mxCell>
        <mxCell id="NmvkQJJ4W1ErekPpUdU3-7" value="&lt;font style=&quot;font-size: 9px&quot;&gt;password&lt;/font&gt;" style="text;html=1;strokeColor=none;fillColor=none;align=center;verticalAlign=middle;whiteSpace=wrap;rounded=0;" parent="1" vertex="1">
          <mxGeometry x="170" y="10" width="60" height="30" as="geometry" />
        </mxCell>
        <mxCell id="NmvkQJJ4W1ErekPpUdU3-10" value="&lt;font style=&quot;font-size: 9px&quot;&gt;email&lt;/font&gt;" style="text;html=1;strokeColor=none;fillColor=none;align=center;verticalAlign=middle;whiteSpace=wrap;rounded=0;" parent="1" vertex="1">
          <mxGeometry x="380" y="10" width="60" height="30" as="geometry" />
        </mxCell>
        <mxCell id="NmvkQJJ4W1ErekPpUdU3-11" value="" style="ellipse;whiteSpace=wrap;html=1;" parent="1" vertex="1">
          <mxGeometry x="240" y="10" width="60" height="30" as="geometry" />
        </mxCell>
        <mxCell id="NmvkQJJ4W1ErekPpUdU3-12" style="edgeStyle=orthogonalEdgeStyle;rounded=0;orthogonalLoop=1;jettySize=auto;html=1;exitX=0.5;exitY=1;exitDx=0;exitDy=0;" parent="1" source="NmvkQJJ4W1ErekPpUdU3-11" target="NmvkQJJ4W1ErekPpUdU3-11" edge="1">
          <mxGeometry relative="1" as="geometry" />
        </mxCell>
        <mxCell id="NmvkQJJ4W1ErekPpUdU3-13" value="&lt;font style=&quot;font-size: 9px&quot;&gt;name&lt;/font&gt;" style="text;html=1;strokeColor=none;fillColor=none;align=center;verticalAlign=middle;whiteSpace=wrap;rounded=0;" parent="1" vertex="1">
          <mxGeometry x="240" y="10" width="60" height="30" as="geometry" />
        </mxCell>
        <mxCell id="NmvkQJJ4W1ErekPpUdU3-14" value="&lt;font style=&quot;font-size: 9px&quot;&gt;surname&lt;/font&gt;" style="text;html=1;strokeColor=none;fillColor=none;align=center;verticalAlign=middle;whiteSpace=wrap;rounded=0;" parent="1" vertex="1">
          <mxGeometry x="310" y="10" width="60" height="30" as="geometry" />
        </mxCell>
        <mxCell id="NmvkQJJ4W1ErekPpUdU3-21" value="" style="endArrow=none;html=1;rounded=0;exitX=0;exitY=0;exitDx=0;exitDy=0;entryX=0.5;entryY=1;entryDx=0;entryDy=0;" parent="1" source="NmvkQJJ4W1ErekPpUdU3-1" target="NmvkQJJ4W1ErekPpUdU3-6" edge="1">
          <mxGeometry width="50" height="50" relative="1" as="geometry">
            <mxPoint x="140" y="90" as="sourcePoint" />
            <mxPoint x="190" y="40" as="targetPoint" />
          </mxGeometry>
        </mxCell>
        <mxCell id="NmvkQJJ4W1ErekPpUdU3-22" value="" style="endArrow=none;html=1;rounded=0;exitX=0.25;exitY=0;exitDx=0;exitDy=0;entryX=0.5;entryY=1;entryDx=0;entryDy=0;" parent="1" source="NmvkQJJ4W1ErekPpUdU3-1" target="NmvkQJJ4W1ErekPpUdU3-7" edge="1">
          <mxGeometry width="50" height="50" relative="1" as="geometry">
            <mxPoint x="330" y="70" as="sourcePoint" />
            <mxPoint x="240" y="40" as="targetPoint" />
          </mxGeometry>
        </mxCell>
        <mxCell id="NmvkQJJ4W1ErekPpUdU3-23" value="" style="endArrow=none;html=1;rounded=0;exitX=0.5;exitY=0;exitDx=0;exitDy=0;entryX=0.5;entryY=1;entryDx=0;entryDy=0;" parent="1" source="NmvkQJJ4W1ErekPpUdU3-1" target="NmvkQJJ4W1ErekPpUdU3-13" edge="1">
          <mxGeometry width="50" height="50" relative="1" as="geometry">
            <mxPoint x="280" y="90" as="sourcePoint" />
            <mxPoint x="190" y="60" as="targetPoint" />
          </mxGeometry>
        </mxCell>
        <mxCell id="NmvkQJJ4W1ErekPpUdU3-24" value="" style="endArrow=none;html=1;rounded=0;exitX=0.629;exitY=-0.01;exitDx=0;exitDy=0;entryX=0.5;entryY=1;entryDx=0;entryDy=0;exitPerimeter=0;" parent="1" source="NmvkQJJ4W1ErekPpUdU3-1" target="NmvkQJJ4W1ErekPpUdU3-14" edge="1">
          <mxGeometry width="50" height="50" relative="1" as="geometry">
            <mxPoint x="290" y="100" as="sourcePoint" />
            <mxPoint x="200" y="70" as="targetPoint" />
          </mxGeometry>
        </mxCell>
        <mxCell id="NmvkQJJ4W1ErekPpUdU3-25" value="" style="endArrow=none;html=1;rounded=0;exitX=0.75;exitY=0;exitDx=0;exitDy=0;entryX=0.5;entryY=1;entryDx=0;entryDy=0;" parent="1" source="NmvkQJJ4W1ErekPpUdU3-1" target="NmvkQJJ4W1ErekPpUdU3-10" edge="1">
          <mxGeometry width="50" height="50" relative="1" as="geometry">
            <mxPoint x="300" y="110" as="sourcePoint" />
            <mxPoint x="210" y="80" as="targetPoint" />
          </mxGeometry>
        </mxCell>
        <mxCell id="NmvkQJJ4W1ErekPpUdU3-26" value="User" style="text;html=1;strokeColor=none;fillColor=none;align=center;verticalAlign=middle;whiteSpace=wrap;rounded=0;" parent="1" vertex="1">
          <mxGeometry x="290" y="90" width="60" height="30" as="geometry" />
        </mxCell>
        <mxCell id="NmvkQJJ4W1ErekPpUdU3-28" value="" style="ellipse;whiteSpace=wrap;html=1;" parent="1" vertex="1">
          <mxGeometry x="450" y="10" width="60" height="30" as="geometry" />
        </mxCell>
        <mxCell id="NmvkQJJ4W1ErekPpUdU3-30" value="&lt;font style=&quot;line-height: 0.9 ; font-size: 9px&quot;&gt;Department ID&lt;/font&gt;" style="text;html=1;strokeColor=none;fillColor=none;align=center;verticalAlign=middle;whiteSpace=wrap;rounded=0;" parent="1" vertex="1">
          <mxGeometry x="450" y="15" width="60" height="20" as="geometry" />
        </mxCell>
        <mxCell id="NmvkQJJ4W1ErekPpUdU3-31" value="" style="endArrow=none;html=1;rounded=0;entryX=0.5;entryY=1;entryDx=0;entryDy=0;exitX=1;exitY=0;exitDx=0;exitDy=0;" parent="1" source="NmvkQJJ4W1ErekPpUdU3-1" target="NmvkQJJ4W1ErekPpUdU3-28" edge="1">
          <mxGeometry width="50" height="50" relative="1" as="geometry">
            <mxPoint x="360" y="80" as="sourcePoint" />
            <mxPoint x="420" y="50" as="targetPoint" />
          </mxGeometry>
        </mxCell>
        <mxCell id="NmvkQJJ4W1ErekPpUdU3-32" value="" style="triangle;whiteSpace=wrap;html=1;fontFamily=Helvetica;fontSize=9;strokeColor=default;rotation=-90;" parent="1" vertex="1">
          <mxGeometry x="300" y="155" width="40" height="50" as="geometry" />
        </mxCell>
        <mxCell id="NmvkQJJ4W1ErekPpUdU3-33" value="ISA" style="text;html=1;strokeColor=none;fillColor=none;align=center;verticalAlign=middle;whiteSpace=wrap;rounded=0;fontFamily=Helvetica;fontSize=9;" parent="1" vertex="1">
          <mxGeometry x="290" y="175" width="60" height="30" as="geometry" />
        </mxCell>
        <mxCell id="NmvkQJJ4W1ErekPpUdU3-34" value="" style="endArrow=none;html=1;rounded=0;fontFamily=Helvetica;fontSize=9;entryX=0.5;entryY=1;entryDx=0;entryDy=0;exitX=1;exitY=0.5;exitDx=0;exitDy=0;" parent="1" source="NmvkQJJ4W1ErekPpUdU3-32" target="NmvkQJJ4W1ErekPpUdU3-1" edge="1">
          <mxGeometry width="50" height="50" relative="1" as="geometry">
            <mxPoint x="310" y="250" as="sourcePoint" />
            <mxPoint x="360" y="200" as="targetPoint" />
          </mxGeometry>
        </mxCell>
        <mxCell id="NmvkQJJ4W1ErekPpUdU3-35" value="" style="endArrow=none;html=1;rounded=0;fontFamily=Helvetica;fontSize=9;entryX=0;entryY=0.75;entryDx=0;entryDy=0;" parent="1" target="NmvkQJJ4W1ErekPpUdU3-32" edge="1">
          <mxGeometry width="50" height="50" relative="1" as="geometry">
            <mxPoint x="360" y="250" as="sourcePoint" />
            <mxPoint x="330" y="140" as="targetPoint" />
          </mxGeometry>
        </mxCell>
        <mxCell id="NmvkQJJ4W1ErekPpUdU3-36" value="" style="endArrow=none;html=1;rounded=0;fontFamily=Helvetica;fontSize=9;entryX=0;entryY=0.25;entryDx=0;entryDy=0;" parent="1" target="NmvkQJJ4W1ErekPpUdU3-32" edge="1">
          <mxGeometry width="50" height="50" relative="1" as="geometry">
            <mxPoint x="280" y="250" as="sourcePoint" />
            <mxPoint x="342.5" y="210" as="targetPoint" />
          </mxGeometry>
        </mxCell>
        <mxCell id="NmvkQJJ4W1ErekPpUdU3-37" value="" style="rounded=0;whiteSpace=wrap;html=1;fontFamily=Helvetica;fontSize=9;strokeColor=default;" parent="1" vertex="1">
          <mxGeometry x="250" y="250" width="50" height="30" as="geometry" />
        </mxCell>
        <mxCell id="NmvkQJJ4W1ErekPpUdU3-38" value="" style="rounded=0;whiteSpace=wrap;html=1;fontFamily=Helvetica;fontSize=9;strokeColor=default;" parent="1" vertex="1">
          <mxGeometry x="340" y="250" width="50" height="30" as="geometry" />
        </mxCell>
        <mxCell id="NmvkQJJ4W1ErekPpUdU3-39" value="Student" style="text;html=1;strokeColor=none;fillColor=none;align=center;verticalAlign=middle;whiteSpace=wrap;rounded=0;fontFamily=Helvetica;fontSize=9;" parent="1" vertex="1">
          <mxGeometry x="245" y="250" width="60" height="30" as="geometry" />
        </mxCell>
        <mxCell id="NmvkQJJ4W1ErekPpUdU3-40" value="Instructor" style="text;html=1;strokeColor=none;fillColor=none;align=center;verticalAlign=middle;whiteSpace=wrap;rounded=0;fontFamily=Helvetica;fontSize=9;" parent="1" vertex="1">
          <mxGeometry x="335" y="250" width="60" height="30" as="geometry" />
        </mxCell>
        <mxCell id="NmvkQJJ4W1ErekPpUdU3-41" value="" style="ellipse;whiteSpace=wrap;html=1;" parent="1" vertex="1">
          <mxGeometry x="130" y="130" width="60" height="30" as="geometry" />
        </mxCell>
        <mxCell id="NmvkQJJ4W1ErekPpUdU3-42" value="" style="ellipse;whiteSpace=wrap;html=1;" parent="1" vertex="1">
          <mxGeometry x="180" y="200" width="60" height="30" as="geometry" />
        </mxCell>
        <mxCell id="NmvkQJJ4W1ErekPpUdU3-43" value="" style="ellipse;whiteSpace=wrap;html=1;" parent="1" vertex="1">
          <mxGeometry x="400" y="200" width="60" height="30" as="geometry" />
        </mxCell>
        <mxCell id="NmvkQJJ4W1ErekPpUdU3-44" value="title" style="text;html=1;strokeColor=none;fillColor=none;align=center;verticalAlign=middle;whiteSpace=wrap;rounded=0;fontFamily=Helvetica;fontSize=9;" parent="1" vertex="1">
          <mxGeometry x="400" y="200" width="60" height="30" as="geometry" />
        </mxCell>
        <mxCell id="NmvkQJJ4W1ErekPpUdU3-45" value="&lt;u&gt;Student ID&lt;/u&gt;" style="text;html=1;strokeColor=none;fillColor=none;align=center;verticalAlign=middle;whiteSpace=wrap;rounded=0;fontFamily=Helvetica;fontSize=9;" parent="1" vertex="1">
          <mxGeometry x="180" y="200" width="60" height="30" as="geometry" />
        </mxCell>
        <mxCell id="NmvkQJJ4W1ErekPpUdU3-46" value="" style="endArrow=none;html=1;rounded=0;fontFamily=Helvetica;fontSize=9;entryX=0.5;entryY=1;entryDx=0;entryDy=0;exitX=0.083;exitY=0.333;exitDx=0;exitDy=0;exitPerimeter=0;" parent="1" source="NmvkQJJ4W1ErekPpUdU3-39" target="NmvkQJJ4W1ErekPpUdU3-45" edge="1">
          <mxGeometry width="50" height="50" relative="1" as="geometry">
            <mxPoint x="290" y="260" as="sourcePoint" />
            <mxPoint x="317.5" y="210" as="targetPoint" />
          </mxGeometry>
        </mxCell>
        <mxCell id="NmvkQJJ4W1ErekPpUdU3-47" value="" style="endArrow=none;html=1;rounded=0;fontFamily=Helvetica;fontSize=9;entryX=0.5;entryY=1;entryDx=0;entryDy=0;exitX=0.917;exitY=0.333;exitDx=0;exitDy=0;exitPerimeter=0;" parent="1" source="NmvkQJJ4W1ErekPpUdU3-40" target="NmvkQJJ4W1ErekPpUdU3-44" edge="1">
          <mxGeometry width="50" height="50" relative="1" as="geometry">
            <mxPoint x="300" y="270" as="sourcePoint" />
            <mxPoint x="327.5" y="220" as="targetPoint" />
          </mxGeometry>
        </mxCell>
        <mxCell id="NmvkQJJ4W1ErekPpUdU3-48" value="" style="rounded=0;whiteSpace=wrap;html=1;" parent="1" vertex="1">
          <mxGeometry x="630" y="70" width="120" height="60" as="geometry" />
        </mxCell>
        <mxCell id="NmvkQJJ4W1ErekPpUdU3-49" value="Department" style="text;html=1;strokeColor=none;fillColor=none;align=center;verticalAlign=middle;whiteSpace=wrap;rounded=0;" parent="1" vertex="1">
          <mxGeometry x="660" y="90" width="60" height="30" as="geometry" />
        </mxCell>
        <mxCell id="NmvkQJJ4W1ErekPpUdU3-50" value="" style="ellipse;whiteSpace=wrap;html=1;" parent="1" vertex="1">
          <mxGeometry x="610" y="10" width="60" height="30" as="geometry" />
        </mxCell>
        <mxCell id="NmvkQJJ4W1ErekPpUdU3-51" value="" style="ellipse;whiteSpace=wrap;html=1;" parent="1" vertex="1">
          <mxGeometry x="700" y="10" width="60" height="30" as="geometry" />
        </mxCell>
        <mxCell id="NmvkQJJ4W1ErekPpUdU3-52" value="&lt;u&gt;Department ID&lt;/u&gt;" style="text;html=1;strokeColor=none;fillColor=none;align=center;verticalAlign=middle;whiteSpace=wrap;rounded=0;fontFamily=Helvetica;fontSize=9;" parent="1" vertex="1">
          <mxGeometry x="610" y="10" width="60" height="30" as="geometry" />
        </mxCell>
        <mxCell id="NmvkQJJ4W1ErekPpUdU3-53" value="&lt;u&gt;name&lt;/u&gt;" style="text;html=1;strokeColor=none;fillColor=none;align=center;verticalAlign=middle;whiteSpace=wrap;rounded=0;fontFamily=Helvetica;fontSize=9;" parent="1" vertex="1">
          <mxGeometry x="700" y="10" width="60" height="30" as="geometry" />
        </mxCell>
        <mxCell id="NmvkQJJ4W1ErekPpUdU3-54" value="" style="endArrow=none;html=1;rounded=0;fontFamily=Helvetica;fontSize=9;entryX=0.5;entryY=1;entryDx=0;entryDy=0;exitX=0.25;exitY=0;exitDx=0;exitDy=0;" parent="1" source="NmvkQJJ4W1ErekPpUdU3-48" target="NmvkQJJ4W1ErekPpUdU3-52" edge="1">
          <mxGeometry width="50" height="50" relative="1" as="geometry">
            <mxPoint x="610" y="90" as="sourcePoint" />
            <mxPoint x="660" y="40" as="targetPoint" />
          </mxGeometry>
        </mxCell>
        <mxCell id="NmvkQJJ4W1ErekPpUdU3-55" value="" style="endArrow=none;html=1;rounded=0;fontFamily=Helvetica;fontSize=9;entryX=0.5;entryY=1;entryDx=0;entryDy=0;exitX=0.75;exitY=0;exitDx=0;exitDy=0;" parent="1" source="NmvkQJJ4W1ErekPpUdU3-48" target="NmvkQJJ4W1ErekPpUdU3-53" edge="1">
          <mxGeometry width="50" height="50" relative="1" as="geometry">
            <mxPoint x="670" y="80" as="sourcePoint" />
            <mxPoint x="650" y="50" as="targetPoint" />
          </mxGeometry>
        </mxCell>
        <mxCell id="vF9d4ITDVxiNtmWQu563-13" style="edgeStyle=orthogonalEdgeStyle;rounded=0;orthogonalLoop=1;jettySize=auto;html=1;exitX=0.5;exitY=0;exitDx=0;exitDy=0;entryX=1;entryY=1;entryDx=0;entryDy=0;fontFamily=Helvetica;fontSize=9;strokeWidth=3;" edge="1" parent="1" source="NmvkQJJ4W1ErekPpUdU3-56" target="vF9d4ITDVxiNtmWQu563-12">
          <mxGeometry relative="1" as="geometry" />
        </mxCell>
        <mxCell id="NmvkQJJ4W1ErekPpUdU3-56" value="" style="rounded=0;whiteSpace=wrap;html=1;" parent="1" vertex="1">
          <mxGeometry x="760" y="450" width="120" height="60" as="geometry" />
        </mxCell>
        <mxCell id="NmvkQJJ4W1ErekPpUdU3-57" value="&lt;font style=&quot;font-size: 12px&quot;&gt;Course&lt;/font&gt;" style="text;html=1;strokeColor=none;fillColor=none;align=center;verticalAlign=middle;whiteSpace=wrap;rounded=0;fontFamily=Helvetica;fontSize=9;" parent="1" vertex="1">
          <mxGeometry x="790" y="460" width="60" height="30" as="geometry" />
        </mxCell>
        <mxCell id="NmvkQJJ4W1ErekPpUdU3-58" value="" style="ellipse;whiteSpace=wrap;html=1;" parent="1" vertex="1">
          <mxGeometry x="920" y="420" width="60" height="30" as="geometry" />
        </mxCell>
        <mxCell id="NmvkQJJ4W1ErekPpUdU3-59" value="" style="ellipse;whiteSpace=wrap;html=1;" parent="1" vertex="1">
          <mxGeometry x="920" y="460" width="60" height="30" as="geometry" />
        </mxCell>
        <mxCell id="NmvkQJJ4W1ErekPpUdU3-60" value="" style="ellipse;whiteSpace=wrap;html=1;" parent="1" vertex="1">
          <mxGeometry x="640" y="500" width="60" height="30" as="geometry" />
        </mxCell>
        <mxCell id="NmvkQJJ4W1ErekPpUdU3-61" value="" style="ellipse;whiteSpace=wrap;html=1;" parent="1" vertex="1">
          <mxGeometry x="920" y="500" width="60" height="30" as="geometry" />
        </mxCell>
        <mxCell id="NmvkQJJ4W1ErekPpUdU3-62" value="" style="ellipse;whiteSpace=wrap;html=1;" parent="1" vertex="1">
          <mxGeometry x="920" y="550" width="60" height="30" as="geometry" />
        </mxCell>
        <mxCell id="NmvkQJJ4W1ErekPpUdU3-63" value="" style="ellipse;whiteSpace=wrap;html=1;" parent="1" vertex="1">
          <mxGeometry x="850" y="550" width="60" height="30" as="geometry" />
        </mxCell>
        <mxCell id="NmvkQJJ4W1ErekPpUdU3-64" value="" style="ellipse;whiteSpace=wrap;html=1;" parent="1" vertex="1">
          <mxGeometry x="780" y="550" width="60" height="30" as="geometry" />
        </mxCell>
        <mxCell id="NmvkQJJ4W1ErekPpUdU3-65" value="" style="ellipse;whiteSpace=wrap;html=1;" parent="1" vertex="1">
          <mxGeometry x="710" y="550" width="60" height="30" as="geometry" />
        </mxCell>
        <mxCell id="NmvkQJJ4W1ErekPpUdU3-66" value="" style="ellipse;whiteSpace=wrap;html=1;" parent="1" vertex="1">
          <mxGeometry x="640" y="550" width="60" height="30" as="geometry" />
        </mxCell>
        <mxCell id="NmvkQJJ4W1ErekPpUdU3-67" value="" style="ellipse;whiteSpace=wrap;html=1;" parent="1" vertex="1">
          <mxGeometry x="640" y="460" width="60" height="30" as="geometry" />
        </mxCell>
        <mxCell id="NmvkQJJ4W1ErekPpUdU3-68" value="" style="ellipse;whiteSpace=wrap;html=1;" parent="1" vertex="1">
          <mxGeometry x="640" y="420" width="60" height="30" as="geometry" />
        </mxCell>
        <mxCell id="mDMJn-NBsmVwxydZv21h-1" value="" style="edgeStyle=orthogonalEdgeStyle;rounded=0;orthogonalLoop=1;jettySize=auto;html=1;exitX=1;exitY=0.5;exitDx=0;exitDy=0;entryX=0;entryY=0.5;entryDx=0;entryDy=0;strokeWidth=3;" parent="1" source="NmvkQJJ4W1ErekPpUdU3-1" target="NmvkQJJ4W1ErekPpUdU3-70" edge="1">
          <mxGeometry relative="1" as="geometry" />
        </mxCell>
        <mxCell id="NmvkQJJ4W1ErekPpUdU3-70" value="" style="rhombus;whiteSpace=wrap;html=1;fontFamily=Helvetica;fontSize=12;strokeColor=default;" parent="1" vertex="1">
          <mxGeometry x="440" y="70" width="80" height="50" as="geometry" />
        </mxCell>
        <mxCell id="NmvkQJJ4W1ErekPpUdU3-71" value="&lt;font style=&quot;font-size: 9px&quot;&gt;is associated with&lt;/font&gt;" style="text;html=1;strokeColor=none;fillColor=none;align=center;verticalAlign=middle;whiteSpace=wrap;rounded=0;fontFamily=Helvetica;fontSize=12;" parent="1" vertex="1">
          <mxGeometry x="450" y="80" width="60" height="30" as="geometry" />
        </mxCell>
        <mxCell id="NmvkQJJ4W1ErekPpUdU3-73" value="" style="endArrow=none;html=1;rounded=0;fontFamily=Helvetica;fontSize=9;strokeWidth=1;exitX=0;exitY=0.5;exitDx=0;exitDy=0;entryX=1;entryY=0.5;entryDx=0;entryDy=0;" parent="1" source="NmvkQJJ4W1ErekPpUdU3-48" target="NmvkQJJ4W1ErekPpUdU3-70" edge="1">
          <mxGeometry width="50" height="50" relative="1" as="geometry">
            <mxPoint x="460" y="140" as="sourcePoint" />
            <mxPoint x="410" y="150" as="targetPoint" />
          </mxGeometry>
        </mxCell>
        <mxCell id="mDMJn-NBsmVwxydZv21h-2" value="" style="ellipse;whiteSpace=wrap;html=1;" parent="1" vertex="1">
          <mxGeometry x="250" y="310" width="60" height="30" as="geometry" />
        </mxCell>
        <mxCell id="mDMJn-NBsmVwxydZv21h-3" value="" style="endArrow=none;html=1;rounded=0;fontFamily=Helvetica;fontSize=9;entryX=0.5;entryY=1;entryDx=0;entryDy=0;exitX=0.5;exitY=0;exitDx=0;exitDy=0;" parent="1" source="mDMJn-NBsmVwxydZv21h-2" target="NmvkQJJ4W1ErekPpUdU3-39" edge="1">
          <mxGeometry width="50" height="50" relative="1" as="geometry">
            <mxPoint x="259.98" y="269.99" as="sourcePoint" />
            <mxPoint x="220" y="240" as="targetPoint" />
          </mxGeometry>
        </mxCell>
        <mxCell id="mDMJn-NBsmVwxydZv21h-5" value="courses" style="text;html=1;strokeColor=none;fillColor=none;align=center;verticalAlign=middle;whiteSpace=wrap;rounded=0;fontFamily=Helvetica;fontSize=9;" parent="1" vertex="1">
          <mxGeometry x="250" y="310" width="60" height="30" as="geometry" />
        </mxCell>
        <mxCell id="mDMJn-NBsmVwxydZv21h-10" value="&lt;u&gt;Course ID&lt;/u&gt;" style="text;html=1;strokeColor=none;fillColor=none;align=center;verticalAlign=middle;whiteSpace=wrap;rounded=0;fontFamily=Helvetica;fontSize=9;" parent="1" vertex="1">
          <mxGeometry x="640" y="420" width="60" height="30" as="geometry" />
        </mxCell>
        <mxCell id="mDMJn-NBsmVwxydZv21h-11" value="name" style="text;html=1;strokeColor=none;fillColor=none;align=center;verticalAlign=middle;whiteSpace=wrap;rounded=0;fontFamily=Helvetica;fontSize=9;" parent="1" vertex="1">
          <mxGeometry x="640" y="460" width="60" height="30" as="geometry" />
        </mxCell>
        <mxCell id="mDMJn-NBsmVwxydZv21h-12" value="Department ID" style="text;html=1;strokeColor=none;fillColor=none;align=center;verticalAlign=middle;whiteSpace=wrap;rounded=0;fontFamily=Helvetica;fontSize=9;" parent="1" vertex="1">
          <mxGeometry x="640" y="500" width="60" height="30" as="geometry" />
        </mxCell>
        <mxCell id="mDMJn-NBsmVwxydZv21h-13" value="credits" style="text;html=1;strokeColor=none;fillColor=none;align=center;verticalAlign=middle;whiteSpace=wrap;rounded=0;fontFamily=Helvetica;fontSize=9;" parent="1" vertex="1">
          <mxGeometry x="640" y="550" width="60" height="30" as="geometry" />
        </mxCell>
        <mxCell id="mDMJn-NBsmVwxydZv21h-14" value="instructor username" style="text;html=1;strokeColor=none;fillColor=none;align=center;verticalAlign=middle;whiteSpace=wrap;rounded=0;fontFamily=Helvetica;fontSize=9;" parent="1" vertex="1">
          <mxGeometry x="710" y="550" width="60" height="30" as="geometry" />
        </mxCell>
        <mxCell id="mDMJn-NBsmVwxydZv21h-15" value="Classroom ID" style="text;html=1;strokeColor=none;fillColor=none;align=center;verticalAlign=middle;whiteSpace=wrap;rounded=0;fontFamily=Helvetica;fontSize=9;" parent="1" vertex="1">
          <mxGeometry x="780" y="550" width="60" height="30" as="geometry" />
        </mxCell>
        <mxCell id="mDMJn-NBsmVwxydZv21h-16" value="campus" style="text;html=1;strokeColor=none;fillColor=none;align=center;verticalAlign=middle;whiteSpace=wrap;rounded=0;fontFamily=Helvetica;fontSize=9;" parent="1" vertex="1">
          <mxGeometry x="850" y="550" width="60" height="30" as="geometry" />
        </mxCell>
        <mxCell id="mDMJn-NBsmVwxydZv21h-17" value="classroom capacity" style="text;html=1;strokeColor=none;fillColor=none;align=center;verticalAlign=middle;whiteSpace=wrap;rounded=0;fontFamily=Helvetica;fontSize=9;" parent="1" vertex="1">
          <mxGeometry x="920" y="550" width="60" height="30" as="geometry" />
        </mxCell>
        <mxCell id="mDMJn-NBsmVwxydZv21h-18" value="time slot" style="text;html=1;strokeColor=none;fillColor=none;align=center;verticalAlign=middle;whiteSpace=wrap;rounded=0;fontFamily=Helvetica;fontSize=9;" parent="1" vertex="1">
          <mxGeometry x="920" y="500" width="60" height="30" as="geometry" />
        </mxCell>
        <mxCell id="mDMJn-NBsmVwxydZv21h-19" value="quota" style="text;html=1;strokeColor=none;fillColor=none;align=center;verticalAlign=middle;whiteSpace=wrap;rounded=0;fontFamily=Helvetica;fontSize=9;" parent="1" vertex="1">
          <mxGeometry x="920" y="460" width="60" height="30" as="geometry" />
        </mxCell>
        <mxCell id="mDMJn-NBsmVwxydZv21h-20" value="prerequisites" style="text;html=1;strokeColor=none;fillColor=none;align=center;verticalAlign=middle;whiteSpace=wrap;rounded=0;fontFamily=Helvetica;fontSize=9;" parent="1" vertex="1">
          <mxGeometry x="920" y="420" width="60" height="30" as="geometry" />
        </mxCell>
        <mxCell id="vF9d4ITDVxiNtmWQu563-1" value="" style="endArrow=none;html=1;rounded=0;fontFamily=Helvetica;fontSize=9;strokeWidth=1;entryX=0;entryY=0;entryDx=0;entryDy=0;exitX=1;exitY=0.75;exitDx=0;exitDy=0;" edge="1" parent="1" source="mDMJn-NBsmVwxydZv21h-10" target="NmvkQJJ4W1ErekPpUdU3-56">
          <mxGeometry width="50" height="50" relative="1" as="geometry">
            <mxPoint x="740" y="500" as="sourcePoint" />
            <mxPoint x="790" y="450" as="targetPoint" />
          </mxGeometry>
        </mxCell>
        <mxCell id="vF9d4ITDVxiNtmWQu563-2" value="" style="endArrow=none;html=1;rounded=0;fontFamily=Helvetica;fontSize=9;strokeWidth=1;entryX=0;entryY=0.25;entryDx=0;entryDy=0;exitX=1;exitY=0.5;exitDx=0;exitDy=0;" edge="1" parent="1" source="mDMJn-NBsmVwxydZv21h-11" target="NmvkQJJ4W1ErekPpUdU3-56">
          <mxGeometry width="50" height="50" relative="1" as="geometry">
            <mxPoint x="710" y="452.5" as="sourcePoint" />
            <mxPoint x="770" y="460" as="targetPoint" />
          </mxGeometry>
        </mxCell>
        <mxCell id="vF9d4ITDVxiNtmWQu563-3" value="" style="endArrow=none;html=1;rounded=0;fontFamily=Helvetica;fontSize=9;strokeWidth=1;entryX=0;entryY=0.5;entryDx=0;entryDy=0;exitX=1;exitY=0.5;exitDx=0;exitDy=0;" edge="1" parent="1" source="mDMJn-NBsmVwxydZv21h-12" target="NmvkQJJ4W1ErekPpUdU3-56">
          <mxGeometry width="50" height="50" relative="1" as="geometry">
            <mxPoint x="720" y="462.5" as="sourcePoint" />
            <mxPoint x="780" y="470" as="targetPoint" />
          </mxGeometry>
        </mxCell>
        <mxCell id="vF9d4ITDVxiNtmWQu563-4" value="" style="endArrow=none;html=1;rounded=0;fontFamily=Helvetica;fontSize=9;strokeWidth=1;entryX=0;entryY=1;entryDx=0;entryDy=0;exitX=1;exitY=0.25;exitDx=0;exitDy=0;" edge="1" parent="1" source="mDMJn-NBsmVwxydZv21h-13" target="NmvkQJJ4W1ErekPpUdU3-56">
          <mxGeometry width="50" height="50" relative="1" as="geometry">
            <mxPoint x="730" y="472.5" as="sourcePoint" />
            <mxPoint x="790" y="480" as="targetPoint" />
          </mxGeometry>
        </mxCell>
        <mxCell id="vF9d4ITDVxiNtmWQu563-5" value="" style="endArrow=none;html=1;rounded=0;fontFamily=Helvetica;fontSize=9;strokeWidth=1;entryX=0.25;entryY=1;entryDx=0;entryDy=0;" edge="1" parent="1" source="mDMJn-NBsmVwxydZv21h-14" target="NmvkQJJ4W1ErekPpUdU3-56">
          <mxGeometry width="50" height="50" relative="1" as="geometry">
            <mxPoint x="740" y="482.5" as="sourcePoint" />
            <mxPoint x="790" y="500" as="targetPoint" />
          </mxGeometry>
        </mxCell>
        <mxCell id="vF9d4ITDVxiNtmWQu563-6" value="" style="endArrow=none;html=1;rounded=0;fontFamily=Helvetica;fontSize=9;strokeWidth=1;entryX=0.436;entryY=1;entryDx=0;entryDy=0;entryPerimeter=0;" edge="1" parent="1" source="mDMJn-NBsmVwxydZv21h-15" target="NmvkQJJ4W1ErekPpUdU3-56">
          <mxGeometry width="50" height="50" relative="1" as="geometry">
            <mxPoint x="750" y="492.5" as="sourcePoint" />
            <mxPoint x="810" y="520" as="targetPoint" />
          </mxGeometry>
        </mxCell>
        <mxCell id="vF9d4ITDVxiNtmWQu563-7" value="" style="endArrow=none;html=1;rounded=0;fontFamily=Helvetica;fontSize=9;strokeWidth=1;entryX=0.75;entryY=1;entryDx=0;entryDy=0;exitX=0.5;exitY=0;exitDx=0;exitDy=0;" edge="1" parent="1" source="mDMJn-NBsmVwxydZv21h-16" target="NmvkQJJ4W1ErekPpUdU3-56">
          <mxGeometry width="50" height="50" relative="1" as="geometry">
            <mxPoint x="760" y="502.5" as="sourcePoint" />
            <mxPoint x="820" y="510" as="targetPoint" />
          </mxGeometry>
        </mxCell>
        <mxCell id="vF9d4ITDVxiNtmWQu563-8" value="" style="endArrow=none;html=1;rounded=0;fontFamily=Helvetica;fontSize=9;strokeWidth=1;entryX=0.5;entryY=0;entryDx=0;entryDy=0;exitX=1;exitY=1;exitDx=0;exitDy=0;" edge="1" parent="1" source="NmvkQJJ4W1ErekPpUdU3-56" target="mDMJn-NBsmVwxydZv21h-17">
          <mxGeometry width="50" height="50" relative="1" as="geometry">
            <mxPoint x="770" y="512.5" as="sourcePoint" />
            <mxPoint x="830" y="520" as="targetPoint" />
          </mxGeometry>
        </mxCell>
        <mxCell id="vF9d4ITDVxiNtmWQu563-9" value="" style="endArrow=none;html=1;rounded=0;fontFamily=Helvetica;fontSize=9;strokeWidth=1;entryX=0.5;entryY=0;entryDx=0;entryDy=0;exitX=1;exitY=0.75;exitDx=0;exitDy=0;" edge="1" parent="1" source="NmvkQJJ4W1ErekPpUdU3-56" target="mDMJn-NBsmVwxydZv21h-18">
          <mxGeometry width="50" height="50" relative="1" as="geometry">
            <mxPoint x="780" y="522.5" as="sourcePoint" />
            <mxPoint x="840" y="530" as="targetPoint" />
          </mxGeometry>
        </mxCell>
        <mxCell id="vF9d4ITDVxiNtmWQu563-10" value="" style="endArrow=none;html=1;rounded=0;fontFamily=Helvetica;fontSize=9;strokeWidth=1;entryX=0;entryY=0.5;entryDx=0;entryDy=0;exitX=1;exitY=0.5;exitDx=0;exitDy=0;" edge="1" parent="1" source="NmvkQJJ4W1ErekPpUdU3-56" target="mDMJn-NBsmVwxydZv21h-19">
          <mxGeometry width="50" height="50" relative="1" as="geometry">
            <mxPoint x="790" y="532.5" as="sourcePoint" />
            <mxPoint x="850" y="540" as="targetPoint" />
          </mxGeometry>
        </mxCell>
        <mxCell id="vF9d4ITDVxiNtmWQu563-11" value="" style="endArrow=none;html=1;rounded=0;fontFamily=Helvetica;fontSize=9;strokeWidth=1;entryX=0;entryY=0.5;entryDx=0;entryDy=0;exitX=1;exitY=0;exitDx=0;exitDy=0;" edge="1" parent="1" source="NmvkQJJ4W1ErekPpUdU3-56" target="mDMJn-NBsmVwxydZv21h-20">
          <mxGeometry width="50" height="50" relative="1" as="geometry">
            <mxPoint x="800" y="542.5" as="sourcePoint" />
            <mxPoint x="860" y="550" as="targetPoint" />
          </mxGeometry>
        </mxCell>
        <mxCell id="vF9d4ITDVxiNtmWQu563-12" value="" style="rhombus;whiteSpace=wrap;html=1;fontFamily=Helvetica;fontSize=9;strokeColor=default;" vertex="1" parent="1">
          <mxGeometry x="730" y="180" width="80" height="80" as="geometry" />
        </mxCell>
        <mxCell id="vF9d4ITDVxiNtmWQu563-15" value="" style="endArrow=none;html=1;rounded=0;fontFamily=Helvetica;fontSize=9;strokeWidth=1;entryX=0.671;entryY=0.987;entryDx=0;entryDy=0;entryPerimeter=0;exitX=0;exitY=0;exitDx=0;exitDy=0;" edge="1" parent="1" source="vF9d4ITDVxiNtmWQu563-12" target="NmvkQJJ4W1ErekPpUdU3-48">
          <mxGeometry width="50" height="50" relative="1" as="geometry">
            <mxPoint x="560" y="330" as="sourcePoint" />
            <mxPoint x="610" y="280" as="targetPoint" />
          </mxGeometry>
        </mxCell>
        <mxCell id="vF9d4ITDVxiNtmWQu563-16" value="" style="rhombus;whiteSpace=wrap;html=1;fontFamily=Helvetica;fontSize=9;strokeColor=default;" vertex="1" parent="1">
          <mxGeometry x="520" y="300" width="80" height="80" as="geometry" />
        </mxCell>
        <mxCell id="vF9d4ITDVxiNtmWQu563-17" value="" style="endArrow=none;html=1;rounded=0;fontFamily=Helvetica;fontSize=9;strokeWidth=1;exitX=1;exitY=1;exitDx=0;exitDy=0;entryX=0;entryY=0;entryDx=0;entryDy=0;" edge="1" parent="1" source="NmvkQJJ4W1ErekPpUdU3-40" target="vF9d4ITDVxiNtmWQu563-16">
          <mxGeometry width="50" height="50" relative="1" as="geometry">
            <mxPoint x="530" y="350" as="sourcePoint" />
            <mxPoint x="580" y="300" as="targetPoint" />
          </mxGeometry>
        </mxCell>
        <mxCell id="vF9d4ITDVxiNtmWQu563-18" value="" style="endArrow=none;html=1;rounded=0;fontFamily=Helvetica;fontSize=9;strokeWidth=1;entryX=0.25;entryY=0;entryDx=0;entryDy=0;exitX=1;exitY=1;exitDx=0;exitDy=0;" edge="1" parent="1" source="vF9d4ITDVxiNtmWQu563-16" target="NmvkQJJ4W1ErekPpUdU3-56">
          <mxGeometry width="50" height="50" relative="1" as="geometry">
            <mxPoint x="530" y="350" as="sourcePoint" />
            <mxPoint x="580" y="300" as="targetPoint" />
          </mxGeometry>
        </mxCell>
        <mxCell id="vF9d4ITDVxiNtmWQu563-19" style="edgeStyle=orthogonalEdgeStyle;rounded=0;orthogonalLoop=1;jettySize=auto;html=1;exitX=1;exitY=1;exitDx=0;exitDy=0;entryX=0.951;entryY=0.982;entryDx=0;entryDy=0;entryPerimeter=0;fontFamily=Helvetica;fontSize=9;strokeWidth=1;" edge="1" parent="1" source="NmvkQJJ4W1ErekPpUdU3-40" target="NmvkQJJ4W1ErekPpUdU3-40">
          <mxGeometry relative="1" as="geometry" />
        </mxCell>
        <mxCell id="vF9d4ITDVxiNtmWQu563-20" value="belongs" style="text;html=1;strokeColor=none;fillColor=none;align=center;verticalAlign=middle;whiteSpace=wrap;rounded=0;fontFamily=Helvetica;fontSize=9;" vertex="1" parent="1">
          <mxGeometry x="740" y="200" width="60" height="30" as="geometry" />
        </mxCell>
        <mxCell id="vF9d4ITDVxiNtmWQu563-26" value="" style="rounded=0;whiteSpace=wrap;html=1;" vertex="1" parent="1">
          <mxGeometry x="250" y="480" width="120" height="60" as="geometry" />
        </mxCell>
        <mxCell id="vF9d4ITDVxiNtmWQu563-27" value="Grades" style="text;html=1;strokeColor=none;fillColor=none;align=center;verticalAlign=middle;whiteSpace=wrap;rounded=0;fontFamily=Helvetica;fontSize=9;" vertex="1" parent="1">
          <mxGeometry x="280" y="490" width="60" height="30" as="geometry" />
        </mxCell>
        <mxCell id="vF9d4ITDVxiNtmWQu563-28" value="" style="ellipse;whiteSpace=wrap;html=1;" vertex="1" parent="1">
          <mxGeometry x="200" y="420" width="60" height="30" as="geometry" />
        </mxCell>
        <mxCell id="vF9d4ITDVxiNtmWQu563-29" value="" style="ellipse;whiteSpace=wrap;html=1;" vertex="1" parent="1">
          <mxGeometry x="290" y="420" width="60" height="30" as="geometry" />
        </mxCell>
        <mxCell id="vF9d4ITDVxiNtmWQu563-30" value="" style="ellipse;whiteSpace=wrap;html=1;" vertex="1" parent="1">
          <mxGeometry x="380" y="420" width="60" height="30" as="geometry" />
        </mxCell>
        <mxCell id="vF9d4ITDVxiNtmWQu563-31" value="Student ID" style="text;html=1;strokeColor=none;fillColor=none;align=center;verticalAlign=middle;whiteSpace=wrap;rounded=0;fontFamily=Helvetica;fontSize=9;" vertex="1" parent="1">
          <mxGeometry x="200" y="420" width="60" height="30" as="geometry" />
        </mxCell>
        <mxCell id="vF9d4ITDVxiNtmWQu563-32" value="Course ID" style="text;html=1;strokeColor=none;fillColor=none;align=center;verticalAlign=middle;whiteSpace=wrap;rounded=0;fontFamily=Helvetica;fontSize=9;" vertex="1" parent="1">
          <mxGeometry x="290" y="420" width="60" height="30" as="geometry" />
        </mxCell>
        <mxCell id="vF9d4ITDVxiNtmWQu563-33" value="grade" style="text;html=1;strokeColor=none;fillColor=none;align=center;verticalAlign=middle;whiteSpace=wrap;rounded=0;fontFamily=Helvetica;fontSize=9;" vertex="1" parent="1">
          <mxGeometry x="380" y="420" width="60" height="30" as="geometry" />
        </mxCell>
        <mxCell id="vF9d4ITDVxiNtmWQu563-34" value="" style="endArrow=none;html=1;rounded=0;fontFamily=Helvetica;fontSize=9;strokeWidth=1;entryX=0.25;entryY=1;entryDx=0;entryDy=0;exitX=1;exitY=0;exitDx=0;exitDy=0;" edge="1" parent="1" source="vF9d4ITDVxiNtmWQu563-16" target="NmvkQJJ4W1ErekPpUdU3-48">
          <mxGeometry width="50" height="50" relative="1" as="geometry">
            <mxPoint x="590" y="220" as="sourcePoint" />
            <mxPoint x="640" y="170" as="targetPoint" />
          </mxGeometry>
        </mxCell>
      </root>
    </mxGraphModel>
  </diagram>
</mxfile>
